<?xml version="1.0" encoding="utf-8"?>
<!-- Generator: Adobe Illustrator 18.1.1, SVG Export Plug-In . SVG Version: 6.00 Build 0)  -->
<svg version="1.1" id="Layer_1" xmlns="http://www.w3.org/2000/svg" xmlns:xlink="http://www.w3.org/1999/xlink" x="0px" y="0px"
	 viewBox="0 0 215.3 123.5" style="enable-background:new 0 0 215.3 123.5;" xml:space="preserve">
<style type="text/css">
	.st0{enable-background:new    ;}
	.st1{fill:#F0A3A3;enable-background:new    ;}
	.st2{fill:#FCD760;enable-background:new    ;}
	.st3{fill:#BBBBBB;enable-background:new    ;}
	.st4{fill:#CBC9E6;enable-background:new    ;}
	.st5{fill:#A6D4BA;enable-background:new    ;}
	.st6{fill:#91D0D6;enable-background:new    ;}
	.st7{fill:#878787;}
</style>
<g id="XMLID_22_" class="st0">
	<path id="XMLID_67_" class="st1" d="M108.4,78.1c0,3.8,0,9.7-7.1,9.7c-4.3,0-6.1-2.4-7.1-6.3c-3.8,4.5-8.5,6.9-14.2,6.9
		c-14,0-24.6-11.9-24.6-28.6c0-16.3,11-28.8,24.6-28.8c5.5,0,10.9,2.2,14.2,6.8c0.4-3.6,3.5-6.2,7.1-6.2c7.1,0,7.1,5.9,7.1,9.7V78.1
		z M82,74.8c7.7,0,11.5-7.9,11.5-15S89.9,44.6,82,44.6c-8.2,0-11.8,8.1-11.8,15.2S73.9,74.8,82,74.8z"/>
	<path id="XMLID_65_" class="st2" d="M132.2,48.3c-2.8,0-8.5-4.3-13.3-4.3c-2.7,0-5.1,1.2-5.1,4.1c0,6.9,25.8,5.9,25.8,22.8
		c0,9.9-8.4,17.5-21.2,17.5c-8.4,0-20.8-4.8-20.8-11.5c0-2.3,2.3-6.6,6.4-6.6c5.8,0,8.4,5.1,15.4,5.1c4.5,0,5.9-1.4,5.9-4.2
		c0-6.8-25.8-5.8-25.8-22.8c0-10.3,8.4-17.4,20.2-17.4c7.3,0,18.6,3.4,18.6,10.7C138.3,45.1,135.7,48.3,132.2,48.3z"/>
	<path id="XMLID_63_" class="st3" d="M134.4,45.2h-3.3c-4,0-6.5-2.5-6.5-6.5c0-3.7,2.8-6.5,6.5-6.5h3.3v-8.9c0-5,3.1-8.3,7.4-8.3
		c4.3,0,7.4,3.3,7.4,8.3v8.9h4.2c3.8,0,7.1,1.8,7.1,6.5c0,4.6-3.3,6.5-7.1,6.5h-4.2v34.3c0,5-3.1,8.3-7.4,8.3
		c-4.3,0-7.4-3.3-7.4-8.3V45.2z"/>
	<path id="XMLID_60_" class="st4" d="M159.9,64.6c1,7.3,7.1,10.7,14.1,10.7c7.6,0,12.9-6,16.8-6c3.2,0,6.1,3.2,6.1,6.4
		c0,6.4-13.2,12.6-24.3,12.6c-16.7,0-27.9-12.2-27.9-28.6c0-15.1,11-28.8,26.7-28.8c16.1,0,26.8,14.7,26.8,27.1c0,4.4-2,6.6-6.5,6.6
		H159.9z M183.2,54.7c-0.8-6.5-5-11.4-11.9-11.4c-6.6,0-11.1,5.1-11.8,11.4H183.2z"/>
	<path id="XMLID_58_" class="st5" d="M189,15.9c0-5,3.1-8.3,7.4-8.3c4.3,0,7.4,3.3,7.4,8.3v63.7c0,5-3.1,8.3-7.4,8.3
		c-4.3,0-7.4-3.3-7.4-8.3V15.9z"/>
	<path id="XMLID_36_" class="st6" d="M42.2,30.9c-5.6,0-11.4,2.3-14.2,6.8c-0.9-3.9-3.3-6.2-7.4-6.2c-4.3,0-7.4,3.3-7.4,8.3v61.6
		c0,5,3.1,8.3,7.4,8.3s7.4-3.3,7.4-8.3V83.2c3.9,3.4,9,5.2,13.6,5.2c15,0,24.5-14,24.5-28C66.2,45.9,58.2,30.9,42.2,30.9z
		 M41.2,74.4c-4.9,0-8.8-3.9-8.8-8.8c0-4.9,6.3-20.7,8.8-20.7c1.9,0,8.8,15.8,8.8,20.7C50,70.5,46,74.4,41.2,74.4z"/>
</g>
<g id="XMLID_1_">
	<path id="XMLID_24_" class="st7" d="M34.3,94.7h2.1v14.7h-2.1V94.7z"/>
	<path id="XMLID_26_" class="st7" d="M38.3,94.7h2l3.2,8.9h0v-8.9h2.1v14.7h-2l-3.2-8.8h0v8.8h-2.1V94.7z"/>
	<path id="XMLID_28_" class="st7" d="M49,96.7h-2.4v-2h7v2h-2.4v12.7H49V96.7z"/>
	<path id="XMLID_30_" class="st7" d="M61.3,106.1c0,0.5-0.1,0.9-0.3,1.3c-0.2,0.4-0.4,0.8-0.7,1.1c-0.3,0.3-0.7,0.6-1.1,0.7
		c-0.4,0.2-0.9,0.3-1.3,0.3c-0.5,0-0.9-0.1-1.3-0.3c-0.4-0.2-0.8-0.4-1.1-0.7c-0.3-0.3-0.6-0.7-0.7-1.1c-0.2-0.4-0.3-0.9-0.3-1.3
		V94.7h2.1v11.2c0,0.5,0.1,0.9,0.4,1.2c0.2,0.2,0.6,0.4,0.9,0.4c0.4,0,0.7-0.1,0.9-0.4c0.2-0.2,0.4-0.6,0.4-1.2V94.7h2.1V106.1z"/>
	<path id="XMLID_32_" class="st7" d="M63.3,94.7h2.1v14.7h-2.1V94.7z"/>
	<path id="XMLID_34_" class="st7" d="M68.9,96.7h-2.4v-2h7v2H71v12.7h-2.1V96.7z"/>
	<path id="XMLID_53_" class="st7" d="M74.4,94.7h2.1v14.7h-2.1V94.7z"/>
	<path id="XMLID_55_" class="st7" d="M82.7,109.4h-1.9l-3-14.7h2.2l1.7,10.3h0l1.7-10.3h2.2L82.7,109.4z"/>
	<path id="XMLID_88_" class="st7" d="M87,94.7h6.3v2h-4.2v4.3h3.6v2h-3.6v4.3h4.2v2.1H87V94.7z"/>
	<path id="XMLID_90_" class="st7" d="M105.3,98.9h-2.1v-0.5c0-0.5-0.1-0.9-0.3-1.2c-0.2-0.4-0.6-0.5-1.1-0.5c-0.3,0-0.5,0.1-0.7,0.2
		c-0.2,0.1-0.3,0.3-0.4,0.4c-0.1,0.2-0.2,0.4-0.2,0.6c0,0.2-0.1,0.5-0.1,0.7c0,0.3,0,0.5,0,0.7c0,0.2,0.1,0.4,0.2,0.5
		c0.1,0.1,0.2,0.3,0.4,0.4c0.2,0.1,0.4,0.2,0.7,0.3l1.6,0.6c0.5,0.2,0.8,0.4,1.1,0.6c0.3,0.2,0.5,0.5,0.7,0.8
		c0.2,0.3,0.3,0.7,0.3,1.1c0.1,0.4,0.1,0.9,0.1,1.4c0,0.6-0.1,1.2-0.2,1.7c-0.1,0.5-0.3,1-0.6,1.4c-0.3,0.4-0.7,0.7-1.1,0.9
		c-0.5,0.2-1,0.3-1.7,0.3c-0.5,0-1-0.1-1.4-0.3c-0.4-0.2-0.8-0.4-1.1-0.7c-0.3-0.3-0.6-0.7-0.8-1.1c-0.2-0.4-0.3-0.9-0.3-1.4v-0.8
		h2.1v0.7c0,0.4,0.1,0.7,0.3,1c0.2,0.3,0.6,0.5,1.1,0.5c0.4,0,0.6-0.1,0.8-0.2c0.2-0.1,0.4-0.2,0.5-0.4c0.1-0.2,0.2-0.4,0.2-0.7
		c0-0.3,0-0.6,0-0.9c0-0.4,0-0.7,0-1c0-0.2-0.1-0.4-0.2-0.6c-0.1-0.2-0.2-0.3-0.4-0.4c-0.2-0.1-0.4-0.2-0.6-0.3l-1.5-0.6
		c-0.9-0.4-1.5-0.9-1.8-1.5c-0.3-0.6-0.5-1.4-0.5-2.3c0-0.6,0.1-1.1,0.2-1.6c0.2-0.5,0.4-0.9,0.7-1.3c0.3-0.4,0.7-0.6,1.1-0.9
		c0.5-0.2,1-0.3,1.6-0.3c0.5,0,1,0.1,1.4,0.3c0.4,0.2,0.8,0.4,1.1,0.8c0.3,0.3,0.5,0.7,0.7,1.1c0.2,0.4,0.2,0.8,0.2,1.2V98.9z"/>
	<path id="XMLID_92_" class="st7" d="M108.2,96.7h-2.4v-2h7v2h-2.4v12.7h-2.1V96.7z"/>
	<path id="XMLID_94_" class="st7" d="M115.7,103.2l-2.9-8.5h2.2l1.7,5.8h0l1.7-5.8h2.2l-2.9,8.5v6.2h-2.1V103.2z"/>
	<path id="XMLID_96_" class="st7" d="M121.7,94.7h2.1v12.6h4.2v2.1h-6.3V94.7z"/>
	<path id="XMLID_98_" class="st7" d="M129.5,94.7h2.1v14.7h-2.1V94.7z"/>
	<path id="XMLID_100_" class="st7" d="M133.5,94.7h2l3.2,8.9h0v-8.9h2.1v14.7h-2l-3.2-8.8h0v8.8h-2.1V94.7z"/>
	<path id="XMLID_102_" class="st7" d="M142.7,98.2c0-0.6,0.1-1.1,0.3-1.6c0.2-0.5,0.5-0.8,0.8-1.1c0.3-0.3,0.7-0.5,1.1-0.7
		c0.4-0.2,0.8-0.2,1.3-0.2c0.4,0,0.8,0.1,1.3,0.2c0.4,0.2,0.8,0.4,1.1,0.7c0.3,0.3,0.6,0.7,0.8,1.1c0.2,0.5,0.3,1,0.3,1.6v0.7h-2.1
		v-0.7c0-0.5-0.1-0.9-0.4-1.1c-0.3-0.2-0.6-0.4-1-0.4c-0.4,0-0.7,0.1-1,0.4c-0.3,0.2-0.4,0.6-0.4,1.1v7.8c0,0.5,0.1,0.9,0.4,1.1
		c0.3,0.2,0.6,0.4,1,0.4c0.4,0,0.7-0.1,1-0.4c0.3-0.2,0.4-0.6,0.4-1.1v-2.8h-1.7v-1.9h3.8v4.6c0,0.6-0.1,1.1-0.3,1.6
		c-0.2,0.4-0.5,0.8-0.8,1.1s-0.7,0.5-1.1,0.7c-0.4,0.2-0.8,0.2-1.3,0.2c-0.4,0-0.9-0.1-1.3-0.2c-0.4-0.2-0.8-0.4-1.1-0.7
		c-0.3-0.3-0.6-0.7-0.8-1.1c-0.2-0.4-0.3-1-0.3-1.6V98.2z"/>
</g>
</svg>
